<?xml version="1.0" encoding="UTF-8"?>
<svg width="309px" height="215px" viewBox="0 0 309 215" version="1.1" xmlns="http://www.w3.org/2000/svg" xmlns:xlink="http://www.w3.org/1999/xlink">
    <title>logo</title>
    <g id="Page-1" stroke="none" stroke-width="1" fill="none" fill-rule="evenodd">
        <g id="Group-2" transform="translate(21.000000, 16.822761)">
            <polygon id="Path" fill="#9CA3AF" transform="translate(68.750000, 87.000000) scale(-1, 1) translate(-68.750000, -87.000000) " points="36.9748539 -1.83068099e-14 137.5 174 102.829878 174 36.9748539 59.5548075 17.0859047 93.8455996 -1.65774512e-14 64"></polygon>
            <path d="M211.417479,64 L275,174 L240.294067,174 L204.781606,112.241217 L192.653,123.941 L192.662651,123.956768 L190.757,125.77 L174.607549,141.349885 L174.499,141.247 L174.392451,141.349885 L158.242,125.77 L156.337349,123.956768 L156.346,123.941 L144.218394,112.241217 L108.705933,174 L74,174 L137.582521,64 L171.93,97.203 L172.006413,97.0736001 L174.5,99.478 L176.993587,97.0736001 L177.069,97.203 L211.417479,64 Z" id="Combined-Shape" fill="#4B5563"></path>
        </g>
    </g>
</svg>